<mxfile host="app.diagrams.net" modified="2021-02-07T03:41:21.252Z" agent="5.0 (Windows NT 10.0; Win64; x64) AppleWebKit/537.36 (KHTML, like Gecko) Chrome/88.0.4324.150 Safari/537.36 Edg/88.0.705.63" etag="cry9lwo_3pnyeOvDpFMI" version="14.2.9" type="github">
  <diagram id="C5RBs43oDa-KdzZeNtuy" name="Page-1">
    <mxGraphModel dx="474" dy="254" grid="1" gridSize="10" guides="1" tooltips="1" connect="1" arrows="1" fold="1" page="1" pageScale="1" pageWidth="827" pageHeight="1169" math="0" shadow="0">
      <root>
        <mxCell id="WIyWlLk6GJQsqaUBKTNV-0" />
        <mxCell id="WIyWlLk6GJQsqaUBKTNV-1" parent="WIyWlLk6GJQsqaUBKTNV-0" />
        <mxCell id="OFaKSV9ueONItdQXf5j2-3" style="edgeStyle=orthogonalEdgeStyle;rounded=0;orthogonalLoop=1;jettySize=auto;html=1;exitX=0.5;exitY=1;exitDx=0;exitDy=0;entryX=0.5;entryY=0;entryDx=0;entryDy=0;" edge="1" parent="WIyWlLk6GJQsqaUBKTNV-1" source="OFaKSV9ueONItdQXf5j2-4" target="OFaKSV9ueONItdQXf5j2-6">
          <mxGeometry relative="1" as="geometry" />
        </mxCell>
        <mxCell id="OFaKSV9ueONItdQXf5j2-4" value="开始" style="rounded=1;whiteSpace=wrap;html=1;" vertex="1" parent="WIyWlLk6GJQsqaUBKTNV-1">
          <mxGeometry x="100" y="30" width="60" height="30" as="geometry" />
        </mxCell>
        <mxCell id="OFaKSV9ueONItdQXf5j2-5" value="" style="edgeStyle=orthogonalEdgeStyle;rounded=0;orthogonalLoop=1;jettySize=auto;html=1;" edge="1" parent="WIyWlLk6GJQsqaUBKTNV-1" source="OFaKSV9ueONItdQXf5j2-6" target="OFaKSV9ueONItdQXf5j2-7">
          <mxGeometry relative="1" as="geometry" />
        </mxCell>
        <mxCell id="OFaKSV9ueONItdQXf5j2-6" value="OLED初始化" style="rounded=0;whiteSpace=wrap;html=1;" vertex="1" parent="WIyWlLk6GJQsqaUBKTNV-1">
          <mxGeometry x="90" y="80" width="80" height="30" as="geometry" />
        </mxCell>
        <mxCell id="OFaKSV9ueONItdQXf5j2-9" style="edgeStyle=orthogonalEdgeStyle;rounded=0;orthogonalLoop=1;jettySize=auto;html=1;exitX=0.5;exitY=1;exitDx=0;exitDy=0;entryX=0.5;entryY=0;entryDx=0;entryDy=0;" edge="1" parent="WIyWlLk6GJQsqaUBKTNV-1" source="OFaKSV9ueONItdQXf5j2-7" target="OFaKSV9ueONItdQXf5j2-8">
          <mxGeometry relative="1" as="geometry" />
        </mxCell>
        <mxCell id="OFaKSV9ueONItdQXf5j2-7" value="串口初始化" style="whiteSpace=wrap;html=1;rounded=0;" vertex="1" parent="WIyWlLk6GJQsqaUBKTNV-1">
          <mxGeometry x="90" y="130" width="80" height="30" as="geometry" />
        </mxCell>
        <mxCell id="OFaKSV9ueONItdQXf5j2-21" value="Y" style="edgeStyle=orthogonalEdgeStyle;rounded=0;orthogonalLoop=1;jettySize=auto;html=1;exitX=0.5;exitY=1;exitDx=0;exitDy=0;labelPosition=right;verticalLabelPosition=top;align=left;verticalAlign=bottom;entryX=0.5;entryY=0;entryDx=0;entryDy=0;" edge="1" parent="WIyWlLk6GJQsqaUBKTNV-1" source="OFaKSV9ueONItdQXf5j2-8" target="OFaKSV9ueONItdQXf5j2-20">
          <mxGeometry relative="1" as="geometry">
            <mxPoint x="130" y="250" as="targetPoint" />
          </mxGeometry>
        </mxCell>
        <mxCell id="OFaKSV9ueONItdQXf5j2-8" value="发送状态" style="rhombus;whiteSpace=wrap;html=1;" vertex="1" parent="WIyWlLk6GJQsqaUBKTNV-1">
          <mxGeometry x="85" y="190" width="90" height="40" as="geometry" />
        </mxCell>
        <mxCell id="OFaKSV9ueONItdQXf5j2-14" value="" style="edgeStyle=orthogonalEdgeStyle;rounded=0;orthogonalLoop=1;jettySize=auto;html=1;" edge="1" parent="WIyWlLk6GJQsqaUBKTNV-1" source="OFaKSV9ueONItdQXf5j2-11" target="OFaKSV9ueONItdQXf5j2-13">
          <mxGeometry relative="1" as="geometry" />
        </mxCell>
        <mxCell id="OFaKSV9ueONItdQXf5j2-11" value="发送数据长度" style="whiteSpace=wrap;html=1;rounded=0;" vertex="1" parent="WIyWlLk6GJQsqaUBKTNV-1">
          <mxGeometry x="90" y="330" width="80" height="30" as="geometry" />
        </mxCell>
        <mxCell id="OFaKSV9ueONItdQXf5j2-16" value="" style="edgeStyle=orthogonalEdgeStyle;rounded=0;orthogonalLoop=1;jettySize=auto;html=1;" edge="1" parent="WIyWlLk6GJQsqaUBKTNV-1" source="OFaKSV9ueONItdQXf5j2-13" target="OFaKSV9ueONItdQXf5j2-15">
          <mxGeometry relative="1" as="geometry" />
        </mxCell>
        <mxCell id="OFaKSV9ueONItdQXf5j2-13" value="发送数据" style="whiteSpace=wrap;html=1;rounded=0;" vertex="1" parent="WIyWlLk6GJQsqaUBKTNV-1">
          <mxGeometry x="90" y="390" width="80" height="30" as="geometry" />
        </mxCell>
        <mxCell id="OFaKSV9ueONItdQXf5j2-18" value="" style="edgeStyle=orthogonalEdgeStyle;rounded=0;orthogonalLoop=1;jettySize=auto;html=1;" edge="1" parent="WIyWlLk6GJQsqaUBKTNV-1" source="OFaKSV9ueONItdQXf5j2-15" target="OFaKSV9ueONItdQXf5j2-17">
          <mxGeometry relative="1" as="geometry" />
        </mxCell>
        <mxCell id="OFaKSV9ueONItdQXf5j2-15" value="发送校验和" style="whiteSpace=wrap;html=1;rounded=0;" vertex="1" parent="WIyWlLk6GJQsqaUBKTNV-1">
          <mxGeometry x="90" y="450" width="80" height="30" as="geometry" />
        </mxCell>
        <mxCell id="OFaKSV9ueONItdQXf5j2-23" style="edgeStyle=orthogonalEdgeStyle;rounded=0;orthogonalLoop=1;jettySize=auto;html=1;exitX=0.5;exitY=1;exitDx=0;exitDy=0;entryX=0;entryY=0.5;entryDx=0;entryDy=0;" edge="1" parent="WIyWlLk6GJQsqaUBKTNV-1" source="OFaKSV9ueONItdQXf5j2-17" target="OFaKSV9ueONItdQXf5j2-8">
          <mxGeometry relative="1" as="geometry" />
        </mxCell>
        <mxCell id="OFaKSV9ueONItdQXf5j2-17" value="标记为已发送" style="whiteSpace=wrap;html=1;rounded=0;" vertex="1" parent="WIyWlLk6GJQsqaUBKTNV-1">
          <mxGeometry x="90" y="510" width="80" height="30" as="geometry" />
        </mxCell>
        <mxCell id="OFaKSV9ueONItdQXf5j2-22" value="Y" style="edgeStyle=orthogonalEdgeStyle;rounded=0;orthogonalLoop=1;jettySize=auto;html=1;exitX=0.5;exitY=1;exitDx=0;exitDy=0;entryX=0.5;entryY=0;entryDx=0;entryDy=0;labelPosition=right;verticalLabelPosition=top;align=left;verticalAlign=bottom;" edge="1" parent="WIyWlLk6GJQsqaUBKTNV-1" source="OFaKSV9ueONItdQXf5j2-20" target="OFaKSV9ueONItdQXf5j2-11">
          <mxGeometry relative="1" as="geometry" />
        </mxCell>
        <mxCell id="OFaKSV9ueONItdQXf5j2-20" value="未发送过" style="rhombus;whiteSpace=wrap;html=1;" vertex="1" parent="WIyWlLk6GJQsqaUBKTNV-1">
          <mxGeometry x="85" y="260" width="90" height="40" as="geometry" />
        </mxCell>
      </root>
    </mxGraphModel>
  </diagram>
</mxfile>
